<svg xmlns="http://www.w3.org/2000/svg" viewBox="0 0 523.91 432.37"><defs><style>.cls-1{fill:#0063a5;stroke:#0063a5;stroke-miterlimit:10;}</style></defs><g id="Layer_2" data-name="Layer 2"><g id="Layer_1-2" data-name="Layer 1"><path class="cls-1" d="M144.5,215.87c0,.26,0,.53,0,.79a72,72,0,0,1-59.11,70.06c-1.3.24-2.61.44-3.94.6a73.24,73.24,0,0,1-8.94.55v144a215.62,215.62,0,0,1-72-12.29V216.4h0c0-.18,0-.35,0-.53V12.16A215.33,215.33,0,0,1,55.88.5h0l16.6,0V143.87a73.24,73.24,0,0,1,8.94.55A72,72,0,0,1,144.5,215.87Z"/><path class="cls-1" d="M432.5,359.36V217.19h0c0-.44,0-.88,0-1.32V73.19l72,.13,18.3,0A215.26,215.26,0,0,0,383.59,1.1h0l-23.05,0L338.29,1h-.1A214.46,214.46,0,0,0,288.5,12.16c-3.05,1.08-6.05,2.22-9,3.43a215.79,215.79,0,0,0-135,200.28c0,.26,0,.53,0,.79a215.22,215.22,0,0,0,54.17,142.27,212.21,212.21,0,0,0,17.82,17.92,215.75,215.75,0,0,0,63,39.3c3,1.21,6,2.35,9,3.43a216.19,216.19,0,0,0,233.3-60.06l-17.3,0Zm-144-142.44V340.6A144.77,144.77,0,0,1,235.27,287l41.22.07a215.47,215.47,0,0,0,12-70.15c0-.35,0-.7,0-1a215.69,215.69,0,0,0-12.58-72.8L236.28,143A144.74,144.74,0,0,1,288.5,91.14V215.87c0,.35,0,.7,0,1Zm72,142.31-14,0a143.49,143.49,0,0,1-22-3.86,285.91,285.91,0,0,0,27-68l-.8-.11h.83a287.66,287.66,0,0,0,8.9-70.15c0-.4,0-.79,0-1.19a288.22,288.22,0,0,0-8.94-71.45c-.1-.4-.2-.81-.31-1.21A285.61,285.61,0,0,0,324.53,76.4,143.15,143.15,0,0,1,342.22,73h0l18.26,0Z"/></g></g></svg>