<svg width="18" height="18" viewBox="0 0 18 18" fill="none" xmlns="http://www.w3.org/2000/svg">
<mask id="path-1-inside-1_19_34" fill="white">
<path d="M12.5014 11.0014H11.7114L11.4314 10.7314C12.0564 10.0054 12.5131 9.15021 12.769 8.22705C13.0248 7.30389 13.0735 6.33559 12.9114 5.39144C12.4414 2.61144 10.1214 0.39144 7.32144 0.0514397C6.33706 -0.0730946 5.33723 0.0292113 4.39846 0.350529C3.4597 0.671846 2.60688 1.20366 1.90527 1.90527C1.20366 2.60688 0.671846 3.4597 0.350529 4.39846C0.0292113 5.33723 -0.0730946 6.33706 0.0514397 7.32144C0.39144 10.1214 2.61144 12.4414 5.39144 12.9114C6.33559 13.0735 7.30389 13.0248 8.22705 12.769C9.15021 12.5131 10.0054 12.0564 10.7314 11.4314L11.0014 11.7114V12.5014L15.2514 16.7514C15.6614 17.1614 16.3314 17.1614 16.7414 16.7514C17.1514 16.3414 17.1514 15.6714 16.7414 15.2614L12.5014 11.0014ZM6.50144 11.0014C4.01144 11.0014 2.00144 8.99144 2.00144 6.50144C2.00144 4.01144 4.01144 2.00144 6.50144 2.00144C8.99144 2.00144 11.0014 4.01144 11.0014 6.50144C11.0014 8.99144 8.99144 11.0014 6.50144 11.0014Z"/>
</mask>
<path d="M12.5014 11.0014H11.7114L11.4314 10.7314C12.0564 10.0054 12.5131 9.15021 12.769 8.22705C13.0248 7.30389 13.0735 6.33559 12.9114 5.39144C12.4414 2.61144 10.1214 0.39144 7.32144 0.0514397C6.33706 -0.0730946 5.33723 0.0292113 4.39846 0.350529C3.4597 0.671846 2.60688 1.20366 1.90527 1.90527C1.20366 2.60688 0.671846 3.4597 0.350529 4.39846C0.0292113 5.33723 -0.0730946 6.33706 0.0514397 7.32144C0.39144 10.1214 2.61144 12.4414 5.39144 12.9114C6.33559 13.0735 7.30389 13.0248 8.22705 12.769C9.15021 12.5131 10.0054 12.0564 10.7314 11.4314L11.0014 11.7114V12.5014L15.2514 16.7514C15.6614 17.1614 16.3314 17.1614 16.7414 16.7514C17.1514 16.3414 17.1514 15.6714 16.7414 15.2614L12.5014 11.0014ZM6.50144 11.0014C4.01144 11.0014 2.00144 8.99144 2.00144 6.50144C2.00144 4.01144 4.01144 2.00144 6.50144 2.00144C8.99144 2.00144 11.0014 4.01144 11.0014 6.50144C11.0014 8.99144 8.99144 11.0014 6.50144 11.0014Z" fill="white"/>
<path d="M12.5014 11.0014L721.27 -694.44L428.094 -988.999H12.5014V11.0014ZM11.7114 11.0014L-682.425 730.845L-391.893 1011H11.7114V11.0014ZM11.4314 10.7314L-746.464 -641.644L-1362.98 74.5926L-682.705 730.575L11.4314 10.7314ZM12.9114 5.39144L-973.096 172.091L-972.888 173.323L-972.677 174.554L12.9114 5.39144ZM7.32144 0.0514397L-118.188 992.144L-115.706 992.458L-113.222 992.76L7.32144 0.0514397ZM0.0514397 7.32144L992.76 -113.222L992.458 -115.706L992.144 -118.188L0.0514397 7.32144ZM5.39144 12.9114L174.554 -972.677L173.323 -972.888L172.091 -973.096L5.39144 12.9114ZM10.7314 11.4314L730.575 -682.705L74.5926 -1362.98L-641.644 -746.464L10.7314 11.4314ZM11.0014 11.7114H1011V-391.893L730.845 -682.425L11.0014 11.7114ZM11.0014 12.5014H-988.999V426.715L-696.105 719.608L11.0014 12.5014ZM16.7414 15.2614L-692.027 720.702L-691.197 721.536L-690.365 722.368L16.7414 15.2614ZM12.5014 -988.999H11.7114V1011H12.5014V-988.999ZM705.848 -708.842L705.568 -709.112L-682.705 730.575L-682.425 730.845L705.848 -708.842ZM769.327 663.107C866.098 550.683 936.823 418.26 976.442 275.312L-950.904 -258.858C-911.797 -399.959 -841.986 -530.673 -746.464 -641.644L769.327 663.107ZM976.442 275.312C1016.06 132.365 1023.59 -17.5727 998.5 -163.771L-972.677 174.554C-997.446 30.2439 -990.011 -117.757 -950.904 -258.858L976.442 275.312ZM998.919 -161.308C924.835 -599.511 571.363 -938.803 127.865 -992.657L-113.222 992.76C-551.121 939.586 -899.952 604.734 -973.096 172.091L998.919 -161.308ZM132.831 -992.041C-19.4809 -1011.31 -174.182 -995.48 -319.435 -945.764L328.232 946.465C184.857 995.539 32.155 1011.16 -118.188 992.144L132.831 -992.041ZM-319.435 -945.764C-464.688 -896.047 -596.642 -813.761 -705.202 -705.202L709.012 709.012C601.856 816.168 471.607 897.391 328.232 946.465L-319.435 -945.764ZM-705.202 -705.202C-813.761 -596.642 -896.047 -464.688 -945.764 -319.435L946.465 328.232C897.391 471.607 816.168 601.856 709.012 709.012L-705.202 -705.202ZM-945.764 -319.435C-995.48 -174.182 -1011.31 -19.4809 -992.041 132.831L992.144 -118.188C1011.16 32.155 995.539 184.857 946.465 328.232L-945.764 -319.435ZM-992.657 127.865C-938.803 571.363 -599.511 924.835 -161.308 998.919L172.091 -973.096C604.734 -899.952 939.586 -551.121 992.76 -113.222L-992.657 127.865ZM-163.771 998.5C-17.5727 1023.59 132.365 1016.06 275.312 976.442L-258.858 -950.904C-117.757 -990.011 30.2439 -997.446 174.554 -972.677L-163.771 998.5ZM275.312 976.442C418.26 936.823 550.683 866.098 663.107 769.327L-641.644 -746.464C-530.673 -841.986 -399.959 -911.797 -258.858 -950.904L275.312 976.442ZM-709.112 705.568L-708.842 705.848L730.845 -682.425L730.575 -682.705L-709.112 705.568ZM-988.999 11.7114V12.5014H1011V11.7114H-988.999ZM-696.105 719.608L-691.855 723.858L722.358 -690.355L718.108 -694.605L-696.105 719.608ZM-691.855 723.858C-300.921 1114.79 332.914 1114.79 723.848 723.858L-690.365 -690.355C-300.251 -1080.47 332.244 -1080.47 722.358 -690.355L-691.855 723.858ZM723.848 723.858C1114.78 332.924 1114.78 -300.911 723.848 -691.845L-690.365 722.368C-1080.48 332.254 -1080.48 -300.241 -690.365 -690.355L723.848 723.858ZM725.51 -690.18L721.27 -694.44L-696.267 716.442L-692.027 720.702L725.51 -690.18ZM6.50144 -988.999C556.296 -988.999 1002 -543.293 1002 6.50144H-997.999C-997.999 561.276 -548.274 1011 6.50144 1011V-988.999ZM1002 6.50144C1002 556.296 556.296 1002 6.50144 1002V-997.999C-548.273 -997.999 -997.999 -548.273 -997.999 6.50144H1002ZM6.50144 1002C-543.293 1002 -988.999 556.296 -988.999 6.50144H1011C1011 -548.274 561.276 -997.999 6.50144 -997.999V1002ZM-988.999 6.50144C-988.999 -543.293 -543.293 -988.999 6.50144 -988.999V1011C561.276 1011 1011 561.276 1011 6.50144H-988.999Z" fill="white" mask="url(#path-1-inside-1_19_34)"/>
</svg>
