<svg width="28" height="28" viewBox="0 0 28 28" fill="none" xmlns="http://www.w3.org/2000/svg">
<path d="M19.8334 9.33334H18.6667V7.12834C18.6667 5.89066 18.1751 4.70367 17.2999 3.8285C16.4247 2.95334 15.2378 2.46167 14.0001 2.46167C12.7624 2.46167 11.5754 2.95334 10.7002 3.8285C9.82508 4.70367 9.33341 5.89066 9.33341 7.12834V9.33334H8.16675C7.23849 9.33334 6.34825 9.70209 5.69187 10.3585C5.0355 11.0148 4.66675 11.9051 4.66675 12.8333V22.1667C4.66675 23.0949 5.0355 23.9852 5.69187 24.6415C6.34825 25.2979 7.23849 25.6667 8.16675 25.6667H19.8334C20.7617 25.6667 21.6519 25.2979 22.3083 24.6415C22.9647 23.9852 23.3334 23.0949 23.3334 22.1667V12.8333C23.3334 11.9051 22.9647 11.0148 22.3083 10.3585C21.6519 9.70209 20.7617 9.33334 19.8334 9.33334ZM11.6667 7.12834C11.6511 6.49285 11.8878 5.87703 12.3251 5.41567C12.7624 4.95431 13.3647 4.68499 14.0001 4.66667C14.6355 4.68499 15.2378 4.95431 15.6751 5.41567C16.1124 5.87703 16.3491 6.49285 16.3334 7.12834V9.33334H11.6667V7.12834ZM21.0001 22.1667C21.0001 22.4761 20.8772 22.7728 20.6584 22.9916C20.4396 23.2104 20.1428 23.3333 19.8334 23.3333H8.16675C7.85733 23.3333 7.56058 23.2104 7.34179 22.9916C7.123 22.7728 7.00008 22.4761 7.00008 22.1667V12.8333C7.00008 12.5239 7.123 12.2272 7.34179 12.0084C7.56058 11.7896 7.85733 11.6667 8.16675 11.6667H19.8334C20.1428 11.6667 20.4396 11.7896 20.6584 12.0084C20.8772 12.2272 21.0001 12.5239 21.0001 12.8333V22.1667Z" fill="#AAAAAA"/>
<path d="M14.0001 14.0001C13.3079 14.0001 12.6312 14.2054 12.0556 14.59C11.4801 14.9746 11.0315 15.5212 10.7665 16.1607C10.5016 16.8003 10.4323 17.504 10.5674 18.1829C10.7024 18.8619 11.0358 19.4855 11.5252 19.975C12.0147 20.4645 12.6384 20.7978 13.3173 20.9329C13.9962 21.0679 14.7 20.9986 15.3395 20.7337C15.9791 20.4688 16.5257 20.0202 16.9103 19.4446C17.2949 18.869 17.5001 18.1924 17.5001 17.5001C17.5001 16.5719 17.1314 15.6816 16.475 15.0252C15.8186 14.3689 14.9284 14.0001 14.0001 14.0001ZM14.0001 18.6668C13.7694 18.6668 13.5438 18.5984 13.352 18.4702C13.1601 18.342 13.0106 18.1598 12.9223 17.9466C12.834 17.7334 12.8109 17.4988 12.8559 17.2725C12.9009 17.0462 13.012 16.8383 13.1752 16.6752C13.3383 16.512 13.5462 16.4009 13.7725 16.3559C13.9988 16.3109 14.2334 16.334 14.4466 16.4223C14.6598 16.5106 14.842 16.6601 14.9702 16.852C15.0984 17.0438 15.1668 17.2694 15.1668 17.5001C15.1668 17.8095 15.0439 18.1063 14.8251 18.3251C14.6063 18.5439 14.3095 18.6668 14.0001 18.6668Z" fill="#AAAAAA"/>
</svg>
