<svg width="28" height="28" viewBox="0 0 28 28" fill="none" xmlns="http://www.w3.org/2000/svg">
<path d="M14 14C17.2216 14 19.8333 11.3884 19.8333 8.16671C19.8333 4.94505 17.2216 2.33337 14 2.33337C10.7783 2.33337 8.16663 4.94505 8.16663 8.16671C8.16663 11.3884 10.7783 14 14 14Z" stroke="#AAAAAA" stroke-width="2"/>
<path d="M19.8333 16.3334H20.244C21.0969 16.3336 21.9204 16.6453 22.5597 17.2099C23.1991 17.7744 23.6102 18.553 23.716 19.3994L24.1722 23.044C24.2132 23.3724 24.1839 23.7057 24.0863 24.0218C23.9887 24.338 23.8249 24.6298 23.6059 24.8778C23.3869 25.1258 23.1176 25.3244 22.816 25.4605C22.5143 25.5965 22.1872 25.6668 21.8563 25.6667H6.14366C5.81277 25.6668 5.48565 25.5965 5.18401 25.4605C4.88237 25.3244 4.61311 25.1258 4.39409 24.8778C4.17508 24.6298 4.01132 24.338 3.91369 24.0218C3.81606 23.7057 3.78679 23.3724 3.82782 23.044L4.28282 19.3994C4.38864 18.5526 4.80014 17.7737 5.43996 17.2091C6.07978 16.6445 6.90383 16.333 7.75716 16.3334H8.16666" stroke="#AAAAAA" stroke-width="2" stroke-linecap="round" stroke-linejoin="round"/>
</svg>
