<?xml version="1.0" standalone="no"?>
<!DOCTYPE svg PUBLIC "-//W3C//DTD SVG 20010904//EN"
 "http://www.w3.org/TR/2001/REC-SVG-20010904/DTD/svg10.dtd">
<svg version="1.0" xmlns="http://www.w3.org/2000/svg"
 width="376.000000pt" height="403.000000pt" viewBox="0 0 376.000000 403.000000"
 preserveAspectRatio="xMidYMid meet">

<g transform="translate(0.000000,403.000000) scale(0.100000,-0.100000)"
fill="#000000" stroke="none">
<path d="M2585 3711 c-275 -72 -477 -213 -571 -396 -23 -44 -47 -98 -54 -120
-6 -22 -14 -46 -16 -54 -3 -10 -18 -2 -51 30 -49 47 -48 44 4 -38 27 -43 33
-62 33 -110 1 -57 1 -57 14 -28 l13 30 13 -27 c9 -20 10 -43 3 -94 -10 -67 -8
-69 23 -17 11 16 13 15 19 -11 5 -18 3 -46 -4 -70 -7 -23 -15 -54 -18 -71 l-6
-30 23 28 c12 15 26 25 31 22 19 -12 8 -83 -20 -141 -16 -32 -33 -77 -37 -99
l-7 -40 41 45 41 45 1 -47 c0 -34 -9 -65 -34 -115 -19 -37 -38 -86 -42 -108
l-7 -40 41 48 c22 26 43 43 47 38 3 -6 6 -29 7 -53 1 -35 -6 -54 -39 -103 -40
-60 -73 -136 -73 -167 0 -10 27 11 70 55 l70 71 29 -28 29 -28 34 26 c89 67
261 117 457 131 l94 7 -7 232 c-4 127 -11 359 -16 516 -5 157 -12 385 -16 508
-8 256 5 235 -119 203z"/>
<path d="M637 2968 c-4 -166 -7 -500 -7 -743 l0 -441 88 22 c144 38 132 48
132 -122 0 -135 1 -146 18 -139 162 62 430 83 606 46 61 -12 131 -35 183 -60
78 -38 85 -44 105 -88 52 -122 81 -173 117 -214 l40 -44 -39 100 c-21 55 -46
141 -55 190 -9 50 -22 96 -28 104 -9 12 -9 13 1 7 9 -6 12 18 12 105 l0 112
-92 91 c-109 107 -206 166 -323 195 -89 23 -223 41 -298 41 l-49 0 6 143 c3
78 11 311 16 517 6 206 12 396 13 422 2 46 2 46 -33 52 -19 3 -119 6 -221 6
l-186 0 -6 -302z m416 -1135 c-35 -2 -91 -2 -125 0 -35 2 -7 3 62 3 69 0 97
-1 63 -3z m130 -10 c-7 -2 -19 -2 -25 0 -7 3 -2 5 12 5 14 0 19 -2 13 -5z m64
-9 c-3 -3 -12 -4 -19 -1 -8 3 -5 6 6 6 11 1 17 -2 13 -5z m423 -150 c0 -2 -13
2 -30 11 -16 9 -30 18 -30 21 0 2 14 -2 30 -11 17 -9 30 -18 30 -21z m101 -61
c13 -16 12 -17 -3 -4 -10 7 -18 15 -18 17 0 8 8 3 21 -13z"/>
<path d="M1626 834 c-34 -33 -9 -94 38 -94 28 0 56 29 56 57 0 44 -63 69 -94
37z"/>
<path d="M735 801 c-49 -23 -99 -74 -119 -123 -22 -51 -20 -153 3 -204 32 -71
124 -134 198 -134 12 0 31 -12 42 -26 25 -31 86 -64 121 -64 37 0 92 18 119
39 l24 18 -21 31 -22 30 -39 -21 c-33 -18 -42 -20 -66 -9 l-27 13 46 40 c66
58 90 109 90 189 0 101 -50 181 -139 221 -54 25 -157 25 -210 0z m188 -93 c58
-41 79 -138 43 -206 -50 -97 -204 -95 -250 2 -20 43 -20 109 0 152 19 41 33
52 81 70 44 16 87 10 126 -18z"/>
<path d="M2344 700 c-12 -5 -25 -13 -29 -19 -9 -16 -25 -13 -25 4 0 11 -12 15
-45 15 l-45 0 0 -180 0 -180 45 0 45 0 0 113 c0 118 8 145 50 167 28 15 66 2
79 -26 6 -14 11 -76 11 -139 l0 -115 44 0 44 0 4 120 c3 104 6 122 23 139 34
34 70 37 99 7 25 -24 26 -30 26 -146 l0 -120 45 0 45 0 0 138 c0 152 -6 174
-59 209 -55 37 -129 28 -183 -24 -26 -25 -26 -25 -37 -4 -23 41 -88 61 -137
41z"/>
<path d="M2955 697 c-37 -17 -93 -79 -101 -113 -12 -48 1 -139 25 -172 50 -70
161 -93 248 -51 24 11 43 24 43 29 0 4 -9 19 -21 34 -19 25 -22 25 -49 11 -46
-24 -107 -19 -135 10 -14 13 -25 29 -25 35 0 6 48 10 136 10 l137 0 -7 56 c-8
68 -26 102 -73 134 -42 29 -132 37 -178 17z m130 -92 c40 -39 32 -45 -60 -45
-82 0 -85 1 -75 19 28 54 95 66 135 26z"/>
<path d="M1180 564 c0 -149 8 -177 60 -208 39 -23 111 -21 143 4 14 11 28 20
31 20 3 0 6 -9 6 -20 0 -17 7 -20 45 -20 l45 0 0 180 0 180 -45 0 -45 0 0
-102 c0 -62 -5 -113 -13 -128 -28 -56 -102 -65 -125 -15 -7 15 -12 73 -12 135
l0 110 -45 0 -45 0 0 -136z"/>
<path d="M1620 520 l0 -180 45 0 45 0 0 180 0 180 -45 0 -45 0 0 -180z"/>
<path d="M1810 660 l0 -40 75 0 c41 0 75 -3 75 -6 0 -3 -36 -46 -80 -96 -74
-84 -80 -94 -80 -134 l0 -44 155 0 155 0 0 40 0 40 -90 0 c-49 0 -90 4 -90 8
0 4 38 51 85 104 73 83 85 102 85 132 l0 36 -145 0 -145 0 0 -40z"/>
</g>
</svg>
